<?xml version="1.0" standalone="no"?>
<!DOCTYPE svg PUBLIC "-//W3C//DTD SVG 20010904//EN"
 "http://www.w3.org/TR/2001/REC-SVG-20010904/DTD/svg10.dtd">
<svg version="1.0" xmlns="http://www.w3.org/2000/svg"
 width="1157.000000pt" height="1157.000000pt" viewBox="0 0 1157.000000 1157.000000"
 preserveAspectRatio="xMidYMid meet">
<metadata>
Created by potrace 1.14, written by Peter Selinger 2001-2017
</metadata>
<g transform="translate(0.000000,1157.000000) scale(0.100000,-0.100000)"
fill="#000000" stroke="none">
<path d="M5509 11566 c-2 -2 -53 -7 -114 -10 -60 -4 -126 -8 -145 -10 -19 -3
-63 -7 -97 -10 -272 -27 -687 -108 -943 -183 -30 -9 -60 -18 -66 -19 -61 -11
-488 -165 -629 -226 -167 -73 -410 -191 -510 -248 -22 -13 -60 -34 -85 -48
-92 -52 -278 -168 -370 -231 -106 -72 -272 -192 -280 -201 -3 -3 -23 -19 -45
-35 -22 -17 -42 -32 -45 -35 -3 -3 -27 -23 -55 -45 -174 -139 -479 -429 -635
-605 -36 -40 -70 -78 -75 -84 -32 -35 -168 -201 -217 -266 -32 -41 -61 -79
-66 -85 -17 -20 -170 -242 -214 -310 -200 -311 -389 -679 -515 -1005 -24 -63
-48 -124 -53 -135 -22 -50 -136 -407 -146 -458 -2 -10 -6 -27 -9 -37 -3 -10
-8 -27 -10 -37 -2 -10 -13 -54 -25 -98 -30 -118 -94 -457 -106 -565 -3 -25 -7
-54 -9 -66 -1 -11 -6 -52 -10 -90 -4 -38 -9 -80 -11 -94 -25 -158 -25 -861 0
-1080 3 -19 7 -60 10 -90 4 -30 9 -71 11 -90 3 -19 7 -55 10 -80 16 -134 79
-458 115 -595 10 -38 21 -81 24 -95 2 -14 9 -38 14 -55 6 -16 22 -70 37 -120
93 -315 208 -603 369 -925 73 -146 208 -389 256 -460 10 -14 44 -65 76 -115
99 -154 363 -510 403 -545 3 -3 33 -36 66 -75 157 -184 395 -421 580 -580 38
-33 75 -64 81 -70 24 -21 61 -51 104 -85 25 -19 52 -40 60 -47 8 -7 33 -26 55
-42 22 -17 45 -34 50 -39 6 -4 55 -39 110 -78 500 -348 979 -587 1550 -774
249 -81 649 -178 845 -205 19 -2 67 -9 105 -15 83 -13 111 -16 190 -25 33 -4
74 -8 90 -10 240 -27 896 -27 1090 0 17 2 55 6 85 9 30 3 89 10 130 16 41 5
91 12 110 14 29 4 142 23 240 41 14 3 39 7 55 10 17 3 113 26 214 50 660 161
1260 425 1835 807 114 76 398 285 441 325 11 10 34 29 50 42 134 103 431 389
595 570 41 46 80 89 85 95 10 11 85 103 115 139 8 11 20 24 26 31 56 60 300
406 400 566 42 66 56 91 154 265 120 214 264 530 354 780 26 72 51 140 56 152
29 72 143 488 171 626 6 29 15 72 20 97 5 25 12 59 15 75 2 17 9 55 14 85 19
111 38 244 46 334 3 28 7 67 9 86 27 248 27 792 1 1075 -9 97 -17 172 -21 195
-2 14 -7 45 -10 70 -3 25 -12 86 -21 135 -8 50 -17 104 -20 120 -30 187 -166
701 -221 835 -3 8 -7 20 -9 25 -4 18 -71 200 -87 235 -8 19 -27 64 -43 100
-107 254 -295 619 -396 767 -15 23 -28 44 -28 47 0 2 -33 53 -72 112 -40 59
-77 114 -83 123 -53 82 -290 385 -395 505 -205 234 -548 562 -739 706 -18 14
-38 30 -44 35 -40 36 -233 176 -352 255 -77 51 -152 101 -167 111 -15 11 -30
19 -33 19 -4 0 -25 13 -48 28 -153 103 -588 317 -872 429 -171 68 -508 176
-645 209 -205 48 -277 65 -295 68 -21 4 -125 23 -161 30 -28 6 -68 12 -194 30
-102 14 -144 19 -280 32 -36 3 -81 8 -100 10 -40 6 -696 14 -701 10z m-3705
-8502 c3 -8 2 -12 -4 -9 -6 3 -10 10 -10 16 0 14 7 11 14 -7z"/>
</g>
</svg>
